<svg height="512" viewBox="0 0 60 60" width="512" xmlns="http://www.w3.org/2000/svg"><g id="Page-1" fill="none" fill-rule="evenodd"><g id="004---Turntable" fill="rgb(0,0,0)" fill-rule="nonzero"><path id="Shape" d="m30 19c-6.0751322 0-11 4.9248678-11 11s4.9248678 11 11 11 11-4.9248678 11-11c-.0071635-6.0721626-4.9278374-10.9928365-11-11zm0 20c-4.9705627 0-9-4.0294373-9-9s4.0294373-9 9-9 9 4.0294373 9 9c-.006061 4.9680501-4.0319499 8.993939-9 9z"/><path id="Shape" d="m10 31c.5522847 0 1-.4477153 1-1 .0115735-10.4886126 8.5113874-18.9884265 19-19 .5522847 0 1-.4477153 1-1 0-.55228475-.4477153-1-1-1-11.5927251.01267598-20.98732402 9.4072749-21 21 0 .5522847.44771525 1 1 1z"/><path id="Shape" d="m30 15c.5522847 0 1-.4477153 1-1s-.4477153-1-1-1c-9.3845001.010471-16.989529 7.6154999-17 17 0 .5522847.4477153 1 1 1s1-.4477153 1-1c.0093685-8.2803876 6.7196124-14.9906315 15-15z"/><path id="Shape" d="m30 27c-1.6568542 0-3 1.3431458-3 3s1.3431458 3 3 3 3-1.3431458 3-3-1.3431458-3-3-3zm0 4c-.5522847 0-1-.4477153-1-1s.4477153-1 1-1 1 .4477153 1 1-.4477153 1-1 1z"/><circle id="Oval" cx="30" cy="55" r="1"/><circle id="Oval" cx="30" cy="5" r="1"/><path id="Shape" d="m25.832 53.635c-.5438142-.0953721-1.0620217.2680242-1.1576317.8117967-.09561.5437724.2675595 1.0621388.8112901 1.1579867s1.0622558-.2670948 1.1583416-.8107834c.0461959-.2613932-.0134302-.5304284-.1657404-.7478268s-.384806-.3653204-.6462596-.4111732z"/><path id="Shape" d="m34.168 6.365c.5438142.0953721 1.0620217-.2680242 1.1576317-.81179666s-.2675595-1.06213886-.8112901-1.15798676c-.5437306-.09584791-1.0622558.26709483-1.1583416.81078342-.0461959.2613932.0134302.53042839.1657404.7478268.1523102.21739842.384806.36532045.6462596.4111732z"/><path id="Shape" d="m21.792 52.553c-.5192854-.1878617-1.0925488.0807577-1.2804937.600013s.0805827 1.0925617.5998079 1.2805897c.5192252.1880281 1.0925746-.0804076 1.2806858-.5996027.0903728-.2494328.077924-.5245545-.0346061-.7648063s-.3159177-.4259408-.5653939-.5161937z"/><path id="Shape" d="m38.208 7.447c.5192854.18786175 1.0925488-.08075766 1.2804937-.60001296s-.0805827-1.0925617-.5998079-1.28058979c-.5192252-.18802808-1.0925746.08040768-1.2806858.59960275-.0903728.24943278-.077924.52455449.0346061.76480629s.3159177.42594078.5653939.51619371z"/><circle id="Oval" cx="17.5" cy="51.651" r="1" transform="matrix(.966 -.259 .259 .966 -12.772 6.289)"/><circle id="Oval" cx="42.5" cy="8.349" r="1" transform="matrix(.966 -.259 .259 .966 -.713 11.284)"/><path id="Shape" d="m13.164 48.508c-.3550222.4230227-.299919 1.053748.1230795 1.4087991.4229984.355051 1.0537274.299991 1.4088074-.1229832s.300063-1.053707-.1228869-1.4088159c-.2031447-.1705604-.4657308-.2534235-.7299778-.2303558-.2642471.0230677-.5085035.1501761-.6790222.3533558z"/><path id="Shape" d="m46.836 11.492c.3550222-.4230227.299919-1.053748-.1230795-1.4087991-.4229984-.35505105-1.0537274-.29999096-1.4088074.1229832-.35508.4229742-.300063 1.053707.1228869 1.4088159.2031447.1705604.4657308.2534235.7299778.2303558.2642471-.0230677.5085035-.1501761.6790222-.3533558z"/><path id="Shape" d="m11.492 46.836c.4231657-.3548267.478599-.9855005.1238186-1.4087051-.3547804-.4232045-.9854481-.4787069-1.4086915-.1239728-.4232434.354734-.47881479.9853957-.1241271 1.4086779.1703768.2033267.4145607.3306256.6788128.3538812.2642521.0232557.5269165-.0594376.7301872-.2298812z"/><path id="Shape" d="m49.794 14.7c.4229499-.3551089.4779669-.9858417.1228869-1.4088159s-.985809-.4780342-1.4088074-.1229832c-.4229985.3550511-.4781017.9857764-.1230795 1.4087991.1705187.2031797.4147751.3302881.6790222.3533558.264247.0230677.5268331-.0597954.7299778-.2303558z"/><circle id="Oval" cx="8.35" cy="42.5" r="1" transform="matrix(.259 -.966 .966 .259 -34.863 39.566)"/><path id="Shape" d="m7.447 38.208c-.18854245-.5188612-.7618758-.7867815-1.28084761-.5985438-.51897181.1882376-.78722886.7614135-.59929603 1.2804958s.76095107.7876759 1.28014364.600048c.24971577-.0902433.45328952-.2760945.56584176-.5165811s.1248414-.5158625.03415824-.7654189z"/><path id="Shape" d="m6.365 34.168c-.09557632-.5439315-.6139864-.9074056-1.1579228-.8118572s-.90743712.6139398-.81191664 1.1578811c.09552047.5439413.61389323.9074687 1.15783944.8119761.26124794-.0458634.49357264-.1936387.64585577-.410811.15228313-.2171722.21204788-.4859481.16614423-.747189z"/><circle id="Oval" cx="5" cy="30" r="1"/><path id="Shape" d="m5.206 26.644c.54382408.0959259 1.06246088-.2671146 1.15847762-.8109227.09601673-.543808-.26693721-1.0625055-.81072922-1.158613-.54379201-.0961076-1.06255004.2667597-1.1587484.8105357-.04621666.2612467.01327452.5301517.1653782.7475231.15210369.2173714.38435194.3653911.6456218.4114769z"/><path id="Shape" d="m6.166 22.389c.51919257.1876279 1.09221081-.0809657 1.28014364-.600048s-.08032422-1.0922582-.59929603-1.2804958c-.51897181-.1882377-1.09230516.0796826-1.28084761.5985438-.09068316.2495564-.078394.5249323.03415824.7654189s.31612599.4263378.56584176.5165811z"/><circle id="Oval" cx="8.349" cy="17.5" r="1" transform="matrix(.966 -.259 .259 .966 -4.245 2.757)"/><path id="Shape" d="m11.615 14.573c.3550222-.4230227.299919-1.053748-.1230795-1.4087991-.4229984-.355051-1.0537274-.299991-1.4088074.1229832-.35508002.4229742-.30006303 1.053707.1228869 1.4088159.2031447.1705604.4657308.2534235.7299778.2303558.2642471-.0230677.5085035-.1501761.6790222-.3533558z"/><path id="Shape" d="m14.573 11.615c.4229499-.3551089.4779669-.9858417.1228869-1.4088159-.35508-.42297416-.985809-.47803425-1.4088074-.1229832-.4229985.3550511-.4781017.9857764-.1230795 1.4087991.1705187.2031797.4147751.3302881.6790222.3533558.264247.0230677.5268331-.0597954.7299778-.2303558z"/><circle id="Oval" cx="17.5" cy="8.349" r="1" transform="matrix(.259 -.966 .966 .259 4.906 23.092)"/><path id="Shape" d="m21.792 7.447c.5188612-.18854245.7867815-.7618758.5985438-1.28084761-.1882376-.51897181-.7614135-.78722886-1.2804958-.59929603s-.7876759.76095107-.600048 1.28014364c.0902433.24971577.2760945.45328952.5165811.56584176s.5158625.1248414.7654189.03415824z"/><path id="Shape" d="m25.832 6.365c.5439315-.09557632.9074056-.6139864.8118572-1.1579228s-.6139398-.90743712-1.1578811-.81191664c-.5439413.09552047-.9074687.61389323-.8119761 1.15783944.0458634.26124794.1936387.49357264.410811.64585577.2171722.15228313.4859481.21204788.747189.16614423z"/><path id="Shape" d="m34.515 55.605c.543776-.0961984.9066433-.6149564.8105357-1.1587484-.0961075-.543792-.614805-.9067459-1.158613-.8107292-.5438081.0960167-.9068486.6146535-.8109227 1.1584776.0460858.2612699.1941055.4935181.4114769.6456218s.4862764.2115949.7475231.1653782z"/><path id="Shape" d="m30 60c16.5607751-.018737 29.981263-13.4392249 30-30 .006157-4.1186216-.8452415-8.1934146-2.5-11.965l1.934-16.922c.032201-.28313901-.0579233-.56656725-.2477406-.77910906-.1898172-.21254182-.4612952-.33400636-.7462594-.33389094h-4.03c-.5083349.00030246-.9355582.38192091-.993.887l-1.043 9.143c-5.6677835-6.40639602-13.8203626-10.06110097-22.374-10.03-16.5685425 0-30 13.4314575-30 30s13.4314575 30 30 30zm25.3-58h2.016l-3.316 29.1c-.0228336.1938104-.0993795.3773819-.221.53l-3.681 4.6-1.515-1.3 3.278-4.1c.1178471-.1471743.1916865-.3246662.213-.512zm-14.016 38.507 4.547 3.914-6.531 7.579-4.547-3.916zm5.094 1.749-3.03-2.61 3.259-3.788 3.035 2.609zm-16.378-40.256c8.6278925-.03094802 16.780084 3.9499939 22.061 10.773l-1.942 17.027-3.26 4.073c-.1326437-.0167028-.2665517-.0210548-.4-.013-.531538.034421-1.0264844.2826157-1.372.688l-3.44 4c-.699283-.1334634-1.4167982.1148486-1.884.652l-6.527 7.577c-.3460697.4021593-.5181624.9253478-.4784024 1.4544182s.288114 1.0206621.6904024 1.3665818l4.552 3.918c.8370594.720237 2.0994409.6257822 2.82-.211l6.526-7.577c.4622129-.5399864.602034-1.2851907.367-1.956l3.447-4c.4974508-.5703627.6216563-1.3763358.319-2.07l3.853-4.814c.3580292-.4433199.5842943-.9783172.653-1.544l1-8.8c3.1996094 11.5818639-1.3470306 23.9139653-11.2990532 30.6470419-9.9520225 6.7330766-23.0904322 6.3658592-32.650834-.9125878-9.56040172-7.278447-13.41111963-19.8452537-9.56958669-31.2303184 3.84153294-11.38506469 14.51877289-19.04986771 26.53447389-19.0481357z"/></g></g></svg>